<svg width="132" height="18" viewBox="0 0 132 18" fill="none" xmlns="http://www.w3.org/2000/svg">
<path fill-rule="evenodd" clip-rule="evenodd" d="M22.7724 10.7121L21.6299 13.8119C21.5678 13.9811 21.348 14.0196 21.2328 13.8819L19.3837 11.6688L22.466 10.4113C22.6541 10.3345 22.8431 10.5202 22.7724 10.7121ZM25.9901 7.06599C25.0323 6.12393 23.6677 5.85303 22.4277 6.3586L16.8489 8.63468L10.7836 1.37489C9.89668 0.313577 8.55839 -0.178043 7.20345 0.0582047C5.84851 0.295353 4.7521 1.21334 4.2706 2.51406L0.208486 13.4845C-0.321385 14.9153 0.177886 16.5575 1.4885 17.4305C2.40694 18.0425 3.57941 18.1165 4.59977 17.7003L10.1113 15.4517C11.0336 15.0755 11.5581 14.0443 11.246 13.0901C10.904 12.0452 9.7664 11.5243 8.77146 11.93L4.55252 13.6512C4.36443 13.728 4.17543 13.5421 4.24653 13.3502L7.68585 4.06092C7.7484 3.8924 7.96754 3.85415 8.08252 3.99162L18.6484 16.6383C19.3682 17.5001 20.3933 17.9757 21.4789 17.9757C21.7179 17.9757 21.9599 17.9527 22.2018 17.9057C23.505 17.6519 24.5589 16.6811 25.0217 15.4249L26.7837 10.643C27.2517 9.37852 26.9475 8.00806 25.9901 7.06599ZM113.186 8.28391C114.847 8.28391 115.488 9.29932 115.577 10.1838C115.583 10.24 115.538 10.2891 115.481 10.2891H110.918C110.859 10.2891 110.814 10.2378 110.822 10.1802C110.946 9.31642 111.712 8.28391 113.186 8.28391ZM115.687 13.9055C115.625 13.9055 115.567 13.9347 115.531 13.9847C115.12 14.5632 114.45 14.9205 113.45 14.9205C112.072 14.9205 110.876 14.0157 110.746 12.7344C110.741 12.6779 110.785 12.6288 110.842 12.6288H114.997H119.04C119.064 12.5571 119.112 12.0081 119.112 11.5066C119.112 7.68721 116.833 5.41923 113.137 5.41923C110.042 5.41923 107.187 7.85416 107.187 11.6737C107.187 15.6605 110.114 18 113.402 18C116.373 18 118.255 16.3395 118.865 14.3332C118.87 14.3202 118.889 14.2457 118.912 14.1363C118.937 14.0173 118.847 13.9055 118.725 13.9055H115.687ZM122.936 11.6128L119.049 6.07758C118.96 5.95113 119.051 5.77721 119.206 5.77721H123.029C123.093 5.77721 123.154 5.80983 123.189 5.86383L125.187 8.9004C125.225 8.95845 125.311 8.958 125.348 8.8995L127.299 5.8654C127.334 5.8105 127.395 5.77721 127.461 5.77721H131.064C131.219 5.77721 131.31 5.95225 131.22 6.0787L127.386 11.4685C127.339 11.5342 127.338 11.622 127.385 11.6881C128.64 13.4733 130.075 15.536 131.363 17.3405C131.453 17.4672 131.362 17.6418 131.206 17.6418H127.411C127.347 17.6418 127.286 17.6094 127.251 17.5556L125.179 14.4198C125.142 14.3627 125.058 14.3622 125.02 14.4189C124.399 15.3403 123.589 16.623 122.973 17.5559C122.938 17.6096 122.878 17.6418 122.813 17.6418H119.275C119.12 17.6418 119.029 17.469 119.117 17.3426L122.937 11.8308C122.982 11.7651 122.982 11.6782 122.936 11.6128ZM102.34 17.4508V0.549375C102.34 0.443851 102.426 0.358352 102.532 0.358352H105.796C105.902 0.358352 105.987 0.443851 105.987 0.549375V17.4508C105.987 17.5563 105.902 17.6418 105.796 17.6418H102.532C102.426 17.6418 102.34 17.5563 102.34 17.4508ZM96.9658 17.4508V0.549375C96.9658 0.443851 97.0517 0.358352 97.1577 0.358352H100.421C100.527 0.358352 100.613 0.443851 100.613 0.549375V17.4508C100.613 17.5563 100.527 17.6418 100.421 17.6418H97.1577C97.0517 17.6418 96.9658 17.5563 96.9658 17.4508ZM88.8953 14.8489C90.3589 14.8489 91.6067 13.703 91.6067 11.6976C91.6067 9.6447 90.3832 8.57033 88.8953 8.57033C87.3358 8.57033 86.16 9.6447 86.16 11.6976C86.16 13.6551 87.384 14.8489 88.8953 14.8489ZM91.6308 16.1141C91.103 17.26 89.9033 17.9759 88.4156 17.9759C84.9124 17.9759 82.4892 15.3263 82.4892 11.6737C82.4892 8.14058 84.7686 5.41923 88.2955 5.41923C90.4311 5.41923 91.3669 6.589 91.6067 7.13799V5.96845C91.6067 5.86293 91.6927 5.77721 91.7987 5.77721H94.9419C95.0479 5.77721 95.1338 5.86293 95.1338 5.96845V17.4508C95.1338 17.5563 95.0479 17.6418 94.9419 17.6418H91.8014C91.6945 17.6418 91.6081 17.5547 91.6097 17.4483C91.616 17.0168 91.6308 16.0202 91.6308 16.1141ZM74.7067 5.9086L76.8926 12.5222C76.9218 12.6115 77.0503 12.609 77.0759 12.5181L78.9427 5.9167C78.9659 5.83413 79.0415 5.77721 79.1275 5.77721H82.2968C82.4261 5.77721 82.5186 5.90208 82.4804 6.02493L78.904 17.5073C78.8793 17.5874 78.805 17.6418 78.7209 17.6418H75.377C75.2946 17.6418 75.2215 17.5894 75.1952 17.5118L72.7398 10.2504C72.7103 10.1635 72.5863 10.1638 72.5575 10.2508L70.1478 17.5109C70.1219 17.5889 70.0486 17.6418 69.9658 17.6418H66.5503C66.4664 17.6418 66.3923 17.5878 66.3669 17.5079L62.7444 6.02538C62.7057 5.90253 62.798 5.77721 62.9276 5.77721H66.312C66.398 5.77721 66.4733 5.83413 66.4967 5.91648L68.364 12.4972C68.3899 12.5874 68.5174 12.5906 68.5474 12.5013L70.7564 5.90793C70.7825 5.82985 70.8561 5.77721 70.9387 5.77721H74.5242C74.607 5.77721 74.6808 5.8303 74.7067 5.9086ZM61.7545 9.12405C61.7545 9.2424 61.6471 9.33285 61.5301 9.31215C61.205 9.25478 60.8959 9.2388 60.6027 9.2388C59.1391 9.2388 57.8195 10.0983 57.8195 12.4614V17.4508C57.8195 17.5563 57.7335 17.6418 57.6275 17.6418H54.3644C54.2582 17.6418 54.1722 17.5563 54.1722 17.4508V5.96845C54.1722 5.86293 54.2582 5.77721 54.3644 5.77721H57.5074C57.6136 5.77721 57.6993 5.86293 57.6993 5.96845V7.37672C58.3232 6.04 59.835 5.65796 60.7946 5.65796C61.086 5.65796 61.3774 5.68923 61.6048 5.73918C61.6926 5.75831 61.7545 5.83615 61.7545 5.9257V9.12405ZM48.7259 17.4508V5.96845C48.7259 5.86293 48.8119 5.77721 48.9179 5.77721H52.1812C52.2872 5.77721 52.3732 5.86293 52.3732 5.96845V17.4508C52.3732 17.5563 52.2872 17.6418 52.1812 17.6418H48.9179C48.8119 17.6418 48.7259 17.5563 48.7259 17.4508ZM50.5255 0.02423C51.7252 0.02423 52.685 0.979122 52.685 2.14866C52.685 3.31843 51.7252 4.27332 50.5255 4.27332C49.3737 4.27332 48.4139 3.31843 48.4139 2.14866C48.4139 0.979122 49.3737 0.02423 50.5255 0.02423ZM37.1048 10.7665H40.961C41.027 10.7665 41.0733 10.7017 41.0517 10.6399L39.146 5.17489C39.1163 5.08961 38.9954 5.08916 38.9648 5.17421L37.0143 10.6392C36.9923 10.7013 37.0386 10.7665 37.1048 10.7665ZM42.16 14.2043H35.857C35.7755 14.2043 35.7031 14.2551 35.6761 14.3314L34.5427 17.5145C34.5157 17.5907 34.4433 17.6418 34.3618 17.6418H30.792C30.6577 17.6418 30.565 17.5084 30.6122 17.3835L36.8742 0.840073C36.9023 0.765599 36.9738 0.716549 37.0537 0.716549H41.1786C41.2587 0.716549 41.3305 0.766049 41.3584 0.840748L47.5499 17.3842C47.5967 17.5091 47.5037 17.6418 47.3701 17.6418H43.6552C43.5737 17.6418 43.5013 17.5907 43.474 17.5145L42.3409 14.3314C42.3137 14.2551 42.2413 14.2043 42.16 14.2043Z" fill="#1A1D21"/>
</svg>
